<?xml version="1.0" encoding="utf-8"?>
<!-- Generator: Adobe Illustrator 26.5.0, SVG Export Plug-In . SVG Version: 6.00 Build 0)  -->
<svg version="1.1" id="Lager_1" xmlns="http://www.w3.org/2000/svg" xmlns:xlink="http://www.w3.org/1999/xlink" x="0px" y="0px"
	 viewBox="0 0 595.28 841.89" style="enable-background:new 0 0 595.28 841.89;" xml:space="preserve">
<style type="text/css">
	.st0{fill:#3C3C3B;}
	.st1{fill:#FFFFFF;}
	.st2{fill:#E63C11;}
</style>
<ellipse class="st0" cx="113.27" cy="337.57" rx="105.54" ry="56.41"/>
<ellipse class="st1" cx="95.07" cy="357.29" rx="82.74" ry="54.57"/>
<ellipse class="st0" cx="481.01" cy="337.57" rx="105.54" ry="56.41"/>
<ellipse class="st1" cx="499.22" cy="357.29" rx="82.74" ry="54.57"/>
<ellipse class="st0" cx="297.64" cy="427.74" rx="149" ry="104.74"/>
<polygon class="st1" points="249.19,491.89 224.2,491.89 236.69,455.89 "/>
<polygon class="st1" points="286.68,491.89 261.69,491.89 274.18,455.89 "/>
<polygon class="st1" points="324.17,491.89 299.18,491.89 311.68,455.89 "/>
<polygon class="st1" points="364.99,491.89 339.99,491.89 352.49,455.89 "/>
<polygon class="st1" points="282.1,445.68 307.09,445.68 294.59,481.68 "/>
<polygon class="st1" points="242.77,445.68 267.76,445.68 255.27,481.68 "/>
<polygon class="st1" points="318.9,445.68 343.89,445.68 331.39,481.68 "/>
<ellipse class="st2" cx="247.24" cy="386.18" rx="28.43" ry="19.26"/>
<ellipse class="st2" cx="343.43" cy="386.18" rx="28.43" ry="19.26"/>
<ellipse class="st1" cx="250.93" cy="393.97" rx="14.22" ry="9.17"/>
<ellipse class="st1" cx="338.27" cy="393.97" rx="14.22" ry="9.17"/>
</svg>
